<?xml version="1.0" encoding="UTF-8" standalone="no"?>
<!-- Created with Inkscape (http://www.inkscape.org/) -->

<svg
   width="793.70081"
   height="1122.5197"
   viewBox="0 0 210 297"
   version="1.1"
   id="svg5"
   inkscape:version="1.1.2 (08b2f3d93c, 2022-04-05)"
   sodipodi:docname="logo.svg"
   xmlns:inkscape="http://www.inkscape.org/namespaces/inkscape"
   xmlns:sodipodi="http://sodipodi.sourceforge.net/DTD/sodipodi-0.dtd"
   xmlns="http://www.w3.org/2000/svg"
   xmlns:svg="http://www.w3.org/2000/svg">
  <sodipodi:namedview
     id="namedview7"
     pagecolor="#505050"
     bordercolor="#eeeeee"
     borderopacity="1"
     inkscape:pageshadow="0"
     inkscape:pageopacity="0"
     inkscape:pagecheckerboard="0"
     inkscape:document-units="px"
     showgrid="false"
     units="px"
     showborder="false"
     inkscape:zoom="0.64052329"
     inkscape:cx="338.00488"
     inkscape:cy="375.47425"
     inkscape:window-width="1920"
     inkscape:window-height="1009"
     inkscape:window-x="0"
     inkscape:window-y="0"
     inkscape:window-maximized="1"
     inkscape:current-layer="layer1" />
  <defs
     id="defs2">
    <rect
       x="18.856651"
       y="15.575644"
       width="218.24197"
       height="78.041351"
       id="rect1551" />
    <clipPath
       clipPathUnits="userSpaceOnUse"
       id="clipPath37764">
      <circle
         style="fill:#ffffff;stroke-width:5.29167"
         id="circle37766"
         cx="200.68848"
         cy="107.15632"
         r="132.29167" />
    </clipPath>
  </defs>
  <g
     inkscape:label="Layer 1"
     inkscape:groupmode="layer"
     id="layer1">
    <circle
       style="fill:#ffffff;stroke-width:5.29167;stroke:#007cc2;stroke-opacity:1"
       id="path27358"
       cx="200.68848"
       cy="107.15632"
       r="132.29167"
       inkscape:export-filename="/home/travis/MegaSync/Wipeout Game/logo.png"
       inkscape:export-xdpi="24.09"
       inkscape:export-ydpi="24.09" />
    <text
       xml:space="preserve"
       transform="scale(0.26458333)"
       id="text1549"
       style="font-style:normal;font-weight:normal;font-size:40px;line-height:1.25;font-family:sans-serif;white-space:pre;shape-inside:url(#rect1551);fill:#000000;fill-opacity:1;stroke:none" />
    <text
       xml:space="preserve"
       style="font-style:normal;font-weight:normal;font-size:10.5833px;line-height:1.25;font-family:sans-serif;fill:#000000;fill-opacity:1;stroke:none;stroke-width:0.264583"
       x="6.0900135"
       y="6.7205153"
       id="text6859"><tspan
         sodipodi:role="line"
         id="tspan6857"
         style="stroke-width:0.264583"
         x="6.0900135"
         y="6.7205153" /></text>
    <text
       xml:space="preserve"
       style="font-style:normal;font-weight:normal;font-size:10.5833px;line-height:1.25;font-family:sans-serif;fill:#000000;fill-opacity:1;stroke:none;stroke-width:0.264583"
       x="4.3731761"
       y="8.8855219"
       id="text12077"><tspan
         sodipodi:role="line"
         id="tspan12075"
         style="font-style:normal;font-variant:normal;font-weight:normal;font-stretch:normal;font-family:'Liberation Serif';-inkscape-font-specification:'Liberation Serif';stroke-width:0.264583"
         x="4.3731761"
         y="8.8855219" /></text>
    <g
       id="g37760"
       clip-path="url(#clipPath37764)">
      <path
         d="m 54.025591,91.46409 c 2.256624,1.617675 5.008317,-0.04982 7.349494,0.482758 2.126148,0.48275 3.910908,2.905405 6.052052,3.366016 6.16153,1.322035 12.287378,-0.334373 18.292476,-2.873302 10.08158,-4.263996 21.728627,-15.821395 29.348587,-28.871071 3.59044,-6.149632 10.23587,-10.345946 15.04934,-12.01691 4.11125,-6.014552 9.25891,-9.23756 14.03244,-12.924658 10.58562,-8.179181 21.535,-15.634178 32.61427,-21.592321 9.87882,-5.312627 19.13773,-7.4327389 29.32755,-7.3586428 5.21261,0.03875 10.33772,-3.2961876 15.96502,-2.8389602 6.25209,0.5082103 13.84155,0.2535565 19.67558,4.388109 4.32623,3.066888 9.01743,3.823396 13.46469,6.085293 3.42243,1.740578 8.02093,3.349246 10.87376,6.398755 3.71211,3.969451 8.16333,4.660401 11.89067,8.574359 7.22845,7.585807 -2.38167,6.314594 -2.57471,8.207845 1.62575,4.76011 5.69743,3.949633 7.60379,8.177048 3.59989,7.982204 -5.89349,2.625241 -5.44252,2.403809 -1.96707,0.34212 -0.95377,4.405793 -0.37172,6.009979 1.57686,4.353656 5.95021,1.531311 8.15479,0.44067 5.51539,-2.728244 9.94618,2.991757 15.42103,3.767902 2.32751,0.329952 4.77963,0.1074 7.0702,1.102806 4.37681,1.903342 0.46527,6.049926 2.58306,10.318198 2.1166,1.576682 5.44861,2.048363 6.88295,5.810866 1.33563,3.503227 2.71058,2.699432 4.46131,6.117302 2.31141,4.517409 2.13569,12.140716 -1.8688,12.449908 -4.64028,0.35873 -0.53617,-5.071131 -3.42121,-7.546777 -2.39301,-0.483847 -5.54375,0.09187 -6.3832,5.147662 -1.59476,9.600717 7.44494,4.910435 8.54325,13.608897 1.69068,13.37198 -8.83536,-2.25766 -9.07869,6.73203 3.95634,2.49352 2.69087,9.84007 -0.7512,11.58513 -1.82892,0.92678 -3.65539,-0.23473 -4.86957,-2.93083 -1.63767,2.40936 -3.92769,3.23216 -5.95723,3.28399 -2.27507,0.0554 -3.31296,0.25576 -3.65539,-3.54439 -0.23293,-2.57988 -4.65796,-1.03969 -5.91789,-2.01296 -4.68907,-3.61391 3.07756,-5.813 2.99234,-8.30542 -2.02907,-0.43405 -8.85185,-0.12291 -5.62,-7.21258 -2.20481,0.43071 -4.25364,2.8921 -6.48505,0.96107 0.32826,4.86836 -2.09574,6.82169 -4.23136,7.60655 -4.05971,1.49147 -3.04177,-6.40881 -5.98986,-4.83299 -2.74929,1.46819 -5.61724,3.87433 -8.33257,0.29011 -4.81041,-6.34446 2.80885,-3.58526 2.1232,-7.87121 -1.83422,0.2757 -3.60721,-0.11295 -5.0815,-2.282022 -1.96527,-2.890979 0.68091,-4.458843 -0.10608,-5.413249 -3.21995,0.568011 -6.09595,3.558717 -9.28086,4.380182 -4.05575,1.045202 -5.30621,-1.227916 -9.08479,3.192209 -2.69864,3.15776 -4.49727,6.9357 -4.14631,13.16829 0.4343,7.68429 -3.62092,11.04907 -3.31174,18.63032 0.90196,22.19453 16.62609,47.92128 27.11992,53.9221 H 95.963021 c 1.482175,-1.04853 0.07801,-4.94489 1.729385,-5.76757 -0.583793,-1.10392 -1.304625,-1.42723 -2.162485,-0.96439 2.682565,-2.21891 5.559919,8.6884 5.620599,-0.96109 2.04513,-1.43939 3.48676,-0.4761 4.32437,2.88546 3.75724,-6.04107 -10.104747,-4.91379 -11.023468,-4.72778 -2.74929,0.56135 -5.881002,0.12731 -8.433195,-2.00523 -0.215049,-7.26442 6.610679,-8.07733 5.621829,-2.88542 5.291883,-3.48889 -6.698495,-11.04573 -5.621829,-3.84535 -0.645182,-14.17148 -11.988842,-2.66291 -15.13075,-1.92548 -3.114449,0.72636 -5.709335,-0.80277 -8.646927,-2.40603 0.466469,-7.92123 -3.368153,-2.9641 -3.458713,-4.32591 0.713696,-2.31078 3.373637,-0.25799 3.891389,-2.88546 -0.867984,-2.2034 -3.480968,-3.83894 -4.756754,-1.92548 0.02085,0.15279 5.540407,-4.28719 4.756754,4.33139 3.909087,3.54104 1.578085,-7.22235 1.729385,-8.17705 4.561612,-2.51785 5.334279,0.95443 6.052064,6.73082 3.104392,1.0585 1.958742,-4.56954 2.593809,-7.69314 3.935904,-0.62892 2.304862,2.95297 4.210635,-3.49317 1.101501,-3.72247 7.083299,-0.16499 5.301357,4.45549 4.204541,-3.9783 -3.791694,-5.89167 -3.458714,-10.09895 0.483721,0.56025 0.771476,1.36302 0.86439,2.40603 1.628694,-0.0199 0.144152,-3.40261 2.161877,-2.88543 -2.506817,6.36002 7.63307,9.47692 5.187607,15.86988 2.155336,-0.38643 1.912279,-4.0338 0.864996,-6.2527 1.044328,-2.06829 5.755981,-2.63301 6.485049,0.48275 0.461715,1.79928 -1.623367,0.75513 -1.296893,2.40382 1.802665,4.03043 2.282822,-3.82341 3.458714,-4.32926 -0.540309,-1.25671 -1.260569,-1.73613 -2.161878,-1.4427 0.91265,-0.71419 1.777039,-0.55252 2.593797,0.48275 -0.539129,1.61766 -0.827457,3.38492 -0.864389,5.28914 1.820554,-0.0344 2.900024,-2.55662 4.158208,0.81932 1.37851,3.69594 1.54412,7.32541 -1.563174,7.35437 0.24008,5.56816 4.197524,-1.50917 4.755534,-1.91993 -1.90928,-4.64149 -2.3817,-11.39913 1.29631,-12.02453 0.0661,1.22127 -0.0774,2.34288 -0.43189,3.36816 2.33941,1.26998 2.8994,-5.78526 5.96974,-4.71805 3.41479,1.18584 1.19204,4.41008 2.67601,6.16062 1.92894,-0.23807 2.54078,-3.60507 1.25638,-5.9115 -1.96828,-3.53523 -5.27633,-4.17527 -7.85108,-4.51861 -3.75418,-0.50379 -3.99629,0.92455 -5.07814,-5.9249 -0.66722,-0.81271 -5.167187,-1.87453 -3.891404,-4.80646 1.98912,-0.8437 3.146184,0.68205 4.755554,2.40601 1.67754,-2.45032 -1.84081,-3.27303 -0.43313,-5.77092 -2.561014,1.49254 -5.230597,-0.73188 -7.781254,0.48055 2.826729,-1.4815 8.751224,-5.2239 8.214564,-9.61841 0.97699,0.65992 1.98554,0.9799 3.02627,0.95995 -0.54093,0.5204 -1.11699,0.68207 -1.72882,0.48499 -0.76729,4.50428 2.67365,4.04566 3.89018,3.84655 -2.27211,1.1504 1.89024,4.67139 3.89139,2.88545 1.51314,6.41768 -1.8122,3.02166 -3.4587,4.32593 3.13945,7.9831 8.47129,-6.95128 12.10563,-0.96112 0.46169,2.8467 -2.09635,1.66971 -2.59377,1.44163 0.48016,3.00059 5.08211,1.26557 4.75462,-1.44163 2.64147,5.4965 -0.4456,9.20677 -3.4581,8.17369 0.0465,2.90432 3.6996,2.06057 4.53721,2.09934 4.56862,0.20482 2.05644,7.46839 -1.07887,6.07766 -0.66066,4.74883 7.86177,-4.36585 7.78248,-4.33048 -2.01356,6.30362 -8.41761,16.42788 -12.5377,12.0224 0.48076,3.69715 4.86104,2.45695 6.05266,1.44492 -1.65193,4.54971 2.99651,5.59377 -1.73774,7.56904 -1.28737,0.53703 -4.53721,1.17586 -4.66802,0.0865 0.54986,4.57412 8.0127,3.00725 9.86478,2.92418 2.69208,5.38672 -3.89779,7.5227 -5.61938,5.77093 -1.97661,2.93971 4.88787,2.52782 4.4994,2.68062 2.35253,-0.91458 4.09448,-3.98928 5.44436,-7.4916 -1.22722,-0.71527 -2.0916,-2.15687 -2.59377,-4.32589 1.10685,-1.11944 2.26019,-1.27887 3.45871,-0.48166 0.52544,2.17573 -1.19443,1.8347 -0.86439,3.84749 3.00246,0.0156 4.32865,-7.20924 0.43131,-7.21381 2.54316,-2.024 12.73317,-2.57319 8.64754,6.24934 1.90871,0.68979 5.88588,-6.39417 3.02689,-7.69313 0.52482,-0.71416 11.01188,-6.34541 7.78248,-9.13694 2.45795,-1.58779 1.72458,4.47318 0,4.80981 3.78649,5.28153 0.24423,2.65954 0.4313,7.2135 2.27389,0.79278 3.50873,-3.20105 4.75553,-5.77213 -1.27605,4.78327 0.65352,8.60972 -3.02567,10.5795 2.63429,1.94096 4.43475,-4.56831 6.62255,0.80942 1.3827,3.39802 -1.22898,7.09184 -3.16446,7.36534 3.83711,4.33932 5.48185,-5.80507 9.07901,-5.77092 2.08622,0.0211 3.41115,2.08934 4.37682,5.3047 1.84794,6.15177 -0.59989,1.12053 -0.91859,5.7575 3.34008,2.76921 3.87034,-5.79073 2.16724,-9.14363 -0.94243,-1.45162 -1.66446,-3.21448 -2.16724,-5.28489 -0.88824,0.37649 -1.7848,0.61896 -2.6903,0.72635 0.73514,0.66875 3.29314,-3.87857 3.12331,-5.53278 2.25244,-0.1705 8.50148,1.6066 6.05205,8.65304 2.62717,-0.69754 2.85055,-6.80157 0.81439,-8.81922 -5.71909,-5.66237 2.56221,-5.23822 0.48312,-0.79608 3.43797,0.27238 -0.20851,-5.36355 2.84996,-6.45303 1.34992,-0.42299 2.68553,-0.30227 4.00696,0.36316 2.54853,1.38516 0.13225,4.96715 1.79016,6.08987 2.6504,-2.74264 0.0703,-6.52042 -1.38684,-8.00325 -3.21692,-3.26965 -7.09519,0.0631 -10.2871,2.23111 2.94406,-0.73965 4.19021,-6.81742 0,-6.73082 4.189,-0.9611 2.42759,-6.25146 -0.43308,-7.69741 -3.29984,-0.35099 -4.73664,4.57839 -8.15662,3.68589 -2.20062,-0.57246 -8.19535,-2.28531 -8.94912,-6.04109 -0.64455,-3.20654 -0.1,-6.40546 -0.18762,-9.6672 0.81495,0.47392 3.62976,-2.10264 3.54104,-0.99095 -0.22163,0.80938 -0.53736,1.46153 -0.94662,1.9543 -0.0525,0.0155 3.51724,0.66542 3.07999,-0.39088 -0.69046,-0.34877 -0.8525,-0.8592 -0.48609,-1.53464 1.83304,-0.82377 0.52482,1.1615 1.72999,1.44606 0.25856,1.93543 -1.81042,1.32201 -2.16189,2.40157 0.65948,2.72713 3.65721,1.37407 3.45871,-1.44053 1.03777,2.92643 4.36616,6.73081 -0.43192,6.73081 2.19466,2.52117 3.34498,0.70199 4.88391,-2.22444 2.13569,-4.06795 7.48518,-1.6941 4.62686,1.74389 8.48777,-0.0743 -2.01951,-11.64369 6.48505,-11.54307 -0.67137,2.09158 -4.45184,0.81384 -3.45871,4.80982 3.08336,-1.92216 5.64346,0.63664 8.64692,1.44273 0.53676,4.31279 -2.68731,7.14611 -2.59379,7.69528 3.3407,2.02402 7.2257,-8.26548 9.94314,-2.88437 -0.79948,-0.85256 -1.66328,-1.17587 -2.59381,-0.9655 0.55225,1.22017 1.27308,1.69959 2.1625,1.44602 1.07887,4.32164 -0.71845,6.14171 -2.1625,8.6576 2.91191,1.65201 4.30762,-2.60642 6.91804,-3.36722 4.45549,0.87472 0.7673,6.48503 0.4319,8.17247 4.83083,2.01738 3.04773,-8.00538 7.60136,-7.3309 5.55167,0.82049 2.17797,3.1169 3.63922,7.3309 7.3632,0.50269 -1.58404,-11.36804 -4.75554,-12.0224 -0.47481,-2.20451 1.47441,-1.44495 1.29749,-3.36602 -0.70949,-0.31335 -3.41542,1.59554 -3.89139,0.9644 0.6261,-5.8252 5.50746,0.95446 6.05267,2.88213 2.65277,0.7939 1.75442,-4.55855 -0.43247,-5.28487 0.0942,-2.26541 15.34603,-5.44863 10.8082,4.325 6.1472,-1.42945 0.50873,-9.50132 -2.16072,-11.05794 2.77489,2.30084 6.4768,-9.00185 9.07901,0.95995 2.8148,-4.6793 -7.68187,-7.23026 -9.33728,-5.81726 -2.68555,2.29085 -5.28762,-2.35954 -8.38897,-1.39514 -1.14321,1.15706 -2.29594,2.2798 -3.4581,3.36601 -1.43749,-0.52701 -2.87796,-1.00757 -4.32438,-1.44495 2.61524,-0.27681 2.74154,-6.03316 0,-6.25148 2.56462,-2.57987 8.00721,-4.56832 9.94437,0.9644 0.72381,-8.32523 -10.13343,-4.76346 -12.10534,-3.84656 -0.26153,-5.4599 2.45022,-1.9543 3.88956,-1.92439 -0.6422,-6.74513 -12.21907,3.35932 -15.22863,2.3584 -1.0735,-0.35764 -4.17772,-1.36411 -4.32683,-4.1963 -0.0935,-1.77824 1.52445,-2.71275 2.10232,-3.05927 3.4398,-2.05281 1.38625,0.71528 3.18702,3.4511 4.46312,-1.47708 0.51114,-8.359701 -2.16188,-8.173704 -0.85251,-7.426338 4.76651,-2.895433 6.48564,-1.923262 -0.24126,0.74185 -0.38541,1.54349 -0.43367,2.406016 5.03027,-1.967559 -2.87199,-6.774111 -4.61559,-6.651221 -1.04789,0.07305 -9.40069,4.036837 -8.3539,-1.044121 h 3.45932 c -1.51194,-3.878585 -7.87976,-3.318447 -9.51199,0 -4.22619,0.776179 -8.48075,-1.566734 -11.3467,-7.095192 -1.5328,-2.955192 -6.39327,-11.225028 -3.94781,-15.687227 2.25841,-4.123444 9.99925,-2.86997 5.35075,4.027995 4.00696,2.482414 5.74744,-5.891674 2.59439,-10.098961 0.9794,0.564679 1.69962,1.686332 2.16072,3.367233 1.19086,-1.660838 2.5223,-2.208937 3.99386,-1.643153 5.23578,1.451605 1.9349,4.038063 2.06,8.375241 2.54436,1.96866 4.18747,-2.497936 3.00008,-6.221585 -2.10229,-6.593604 2.30904,-3.934083 3.917,-5.320251 -0.89299,-2.604205 -3.37607,-1.206874 -4.55429,-0.670981 -1.94861,0.887991 -4.35762,-2.733763 -6.68567,-3.655079 1.78122,-0.922322 11.80377,2.169081 12.10441,5.769704 4.23688,-4.174361 -8.1804,-6.231353 -8.21455,-6.251478 1.00499,-0.407465 2.01354,-0.407465 3.0269,0 -0.28597,-1.560094 -0.43013,-3.162329 -0.4319,-4.808594 1.62156,0.434024 0.30264,1.773783 0.4319,3.368151 2.22625,-0.883569 12.46606,8.005373 11.24149,13.944615 4.44878,0.736324 -1.68175,-10.52097 -2.16189,-12.021178 3.8984,-3.838947 5.60107,1.261151 7.35071,4.327123 3.9472,-6.195065 -10.18037,-8.608815 -10.80942,-10.098044 9.01587,4.911655 -1.53223,-1.034169 4.38446,-3.304117 2.05643,-0.789471 12.21296,-1.783754 9.45068,7.151601 5.47302,0.0066 -0.20134,-7.542509 -0.43307,-10.100181 0.55938,2.072756 3.38674,6.683243 4.22955,5.664504 2.62836,-3.174525 6.20269,6.089869 3.12116,9.72604 2.73618,0.994285 4.56802,-4.767731 5.46052,-6.837225 -0.6267,0.459515 -0.86024,1.294356 -0.70474,2.509007 1.55663,-0.747391 9.81051,1.81586 6.48567,7.69405 1.74905,1.27445 2.42877,-1.865681 2.59379,-4.329254 -1.68709,-4.479889 -4.70339,-6.269161 -6.48503,-10.578601 0.34136,-1.266668 0.91803,-1.747223 1.7288,-1.442731 0.33182,-4.006956 -4.3689,-1.760488 -3.74656,-2.79688 0.73096,-1.221268 3.02331,-0.555841 3.74656,0.391944 0.33419,-4.597284 -5.11716,-3.930729 -6.48505,-4.808593 1.36183,-0.293416 9.00217,0.84594 6.48505,6.251475 3.61178,0.145048 1.37077,-7.50165 -0.86439,-8.174608 3.41053,-1.268895 3.12208,4.618323 3.02688,7.213805 1.2725,0.708635 2.56878,1.191384 3.89078,1.443828 0.28835,1.602174 0.57666,3.205322 0.865,4.807678 2.71413,-1.231238 1.23554,-5.322384 0.43132,-8.174608 2.6611,-2.975139 7.43944,-1.86901 6.91802,3.848704 1.80208,0.618957 1.02049,-2.185669 2.59381,-1.924382 -1.05503,2.18457 2.09217,2.73044 1.72938,5.290367 -0.73509,0.210374 -1.45535,0.530379 -2.16246,0.961078 1.02999,1.361897 10.21787,-9.156757 9.51321,1.442731 -2.33288,-6.483825 -7.1016,-1.691851 -5.63676,-0.223658 3.54287,3.552019 -3.62854,4.003605 -4.30701,4.071298 -1.24503,1.211326 4.33202,3.151049 5.61176,2.233296 1.69902,-1.217972 3.44165,-0.884663 4.76103,1.617665 1.86523,3.539823 -0.23411,2.96739 -1.2945,5.28488 2.63429,2.613074 3.2538,-3.329428 5.18943,-4.809812 -0.39436,7.456213 -7.08146,8.261202 -9.94498,8.177046 1.7443,6.035589 16.04247,-5.77214 11.2409,4.807673 0.77086,2.201192 2.77791,-0.621146 3.89139,0.482758 2.71773,4.658264 -0.81795,4.235337 -1.72882,6.732024 3.26052,2.040649 5.46174,-5.492831 8.64634,0 -1.20993,0.02547 -2.36384,-0.45619 -3.45872,-1.44273 3.57306,6.245991 -7.39828,7.875784 -7.3501,8.655166 2.14938,2.160239 9.90167,-1.535737 8.64753,4.808603 -0.86679,-0.26574 -1.73057,-0.26574 -2.59381,0 -0.72322,5.863912 8.53565,-1.117208 5.6206,-5.769705 0.0322,-0.102874 5.83101,2.53446 7.04092,2.987326 6.48565,2.430368 -0.32586,5.223896 -0.98831,7.110739 1.47323,2.796902 4.71407,0.597926 5.6206,-2.40489 -0.98774,2.391634 4.42013,12.264792 -2.16189,11.060042 2.17201,2.67953 4.80281,-0.20259 6.9223,-1.44158 4.03593,-2.35731 3.95726,1.03303 3.88652,5.77214 6.29203,-0.36762 -0.10127,-8.61309 1.21112,-12.077898 2.92619,-7.726374 10.55206,3.546528 7.00341,4.861948 2.3835,3.26204 4.07312,-6.841484 4.20454,-6.499374 0.13699,0.981014 0.0333,1.865698 -0.31336,2.654064 2.41923,0.3687 5.77091,6.60243 1.72938,8.65639 2.2572,2.52448 4.35121,-3.68711 6.91743,-2.88548 -0.54927,0.67763 -3.00189,0.0786 -3.02631,1.92439 1.36185,2.48132 2.64266,-1.46044 3.02151,3.49439 0.38127,4.96806 -2.0225,6.90918 -4.3201,6.60365 0.28297,1.91329 13.23873,-1.91108 7.3501,6.25148 1.09195,0.10848 6.13317,-3.49988 3.45932,-5.29037 0.3223,0.23806 9.36776,1.27222 6.48565,4.32591 4.81652,-5.90051 -10.73563,-11.13325 -5.86789,-13.76501 2.40735,-1.30102 6.33564,2.90981 6.72045,0.52923 0.865,-5.3489 7.36749,-4.20514 6.92901,1.21688 3.57549,-4.82415 -9.47753,-10.38923 -11.67326,-9.13815 2.35965,-0.71417 3.76547,-3.342842 3.52,-7.837976 -0.41996,-7.65533 -2.60394,-1.892273 -4.40945,-6.042293 -0.4897,-1.127172 5.12876,0.788337 4.61679,1.751642 -0.5248,0.319988 -0.75834,0.995415 -0.69995,2.02958 0.82866,-0.104012 5.36752,-4.490873 2.5932,-6.251478 3.09952,3.060485 10.49201,-5.130898 11.2412,5.28915 4.39816,-8.927762 -11.57508,-6.322217 -10.80821,-12.02027 1.62755,-0.405265 3.21325,-0.08416 4.75463,0.962176 0.75415,-7.733999 -13.48146,-2.158013 -15.13076,-2.404906 -0.35267,-1.96423 -6.10024,-7.189408 -1.32073,-7.23789 2.09218,-0.02106 4.44695,5.850505 4.779,-1.418365 -0.56238,-0.513763 -1.13785,-0.513763 -1.73001,0 1.2981,-2.201192 7.49005,-2.285348 7.68246,-1.143791 -0.7804,-4.652473 -6.36886,-5.301348 -8.67864,-5.453193 -3.74473,-0.246917 -7.74376,-1.53351 -11.5397,-3.983785 -5.97828,4.372559 -12.19042,0.56581 -17.72656,0.48275 2.84041,-2.743735 5.73922,-18.67454 9.94286,-7.694054 -0.6327,-9.053696 -12.31086,-7.54129 -15.56467,-7.694055 -0.81972,-2.687263 1.82354,-1.932128 1.68174,-1.771588 -0.63802,0.07862 -0.91088,0.668783 -0.81735,1.771588 1.12357,0.316659 2.08626,-0.214804 2.89046,-1.593331 1.39104,-2.924216 1.74964,0.05094 4.0283,-0.329954 0.44742,-1.726185 -1.63763,-3.207763 -1.46785,-5.094304 0.39913,-4.42226 4.80403,-0.198194 5.79104,0.765106 1.62694,-5.067775 -10.89114,-8.790243 -12.10564,-8.655163 -3.40871,-4.375912 -7.19642,-7.823645 -11.16404,-10.053833 -2.81002,-1.580036 -5.72732,-2.530046 -8.66613,-2.642958 -4.1881,-0.161655 -3.34377,-4.442079 -7.18912,-4.619543 -4.88543,-0.223662 -9.61871,-2.1867967 -14.48281,-3.1013428 -6.29812,-1.1825421 -10.88198,2.3871898 -16.86452,3.5852528 -11.54581,2.310808 -21.72252,1.923253 -32.98629,8.997282 -10.08615,6.335634 -20.35069,12.222731 -30.16454,19.931422 -4.41495,3.467859 -8.41885,7.88341 -12.62158,12.091006 -4.73418,4.737852 -10.18403,6.440832 -14.58739,12.35781 -17.776544,23.883183 -40.243378,47.860288 -62.688564,49.525158 0,-7.35863 10.930476,-4.17863 14.699603,-7.21686 -2.883328,0.12401 -5.765442,0.36429 -8.649375,0.48052 -5.272072,0.21371 -6.050228,1.75943 -6.050228,-8.17033 5.595592,3.00615 12.259008,1.04633 17.939075,0.0387 4.529892,-0.803822 13.054249,0.41302 16.648031,-5.81086 -4.264922,2.298603 -34.587106,7.98861 -34.587106,-2.886559"
         fill="#007cc2"
         fill-rule="evenodd"
         id="path27309"
         style="stroke-width:0.30492" />
      <path
         style="fill:#007cc2;stroke:none;stroke-width:0.264583px;stroke-linecap:butt;stroke-linejoin:miter;stroke-opacity:1;fill-opacity:1"
         d="m 240.40406,164.06771 c 0,0 9.75725,29.63401 67.11077,48.69913 57.35349,19.06513 -101.10948,35.8043 -101.10948,35.8043 L 87.277958,225.28653 95.963019,187.64596 v 0 l 30.927251,-5.29812 56.85492,1.82575 48.96456,-6.57852 z"
         id="path27508" />
    </g>
    <path
       style="fill:#b4e2ff;fill-opacity:1;stroke:none;stroke-width:31.2245;stroke-opacity:1"
       d="M 739.30336,-83.812087 C 611.82092,-80.22171 487.43538,-22.151106 400.81636,71.142675 327.08667,149.80693 279.79454,253.62107 271.17415,361.20064 c 8.4676,1.65294 18.3555,-1.81894 27.05335,-3.42629 57.62022,-15.1323 99.96606,-61.87668 131.50841,-110.046 13.16127,-21.4478 31.5521,-39.81229 54.53612,-50.50536 16.67795,-11.19628 28.47763,-28.07464 45.02081,-39.56932 48.51866,-37.78526 98.80143,-74.317809 154.31742,-101.129012 30.28054,-14.882448 64.08071,-18.679714 97.30783,-20.878936 22.91837,-2.904007 45.03143,-11.862251 68.4828,-9.473987 23.8705,1.270007 49.10742,3.886045 68.97968,18.606716 31.34292,16.028164 67.03639,25.170013 93.56443,49.494452 16.152,13.312877 39.8255,20.745347 48.0465,41.629777 2.4185,10.40443 -10.8266,11.85674 -17.1643,15.70066 -2.6443,6.36809 6.3632,11.49855 10.1479,15.5421 9.6458,7.07052 22.6234,18.00294 18.6188,31.37388 -8.0983,4.51013 -16.1811,-2.6318 -23.9093,-3.81158 -5.7054,5.42416 -1.7016,15.29151 0.8904,21.5644 3.3233,8.95758 14.2811,9.31958 21.3266,4.70807 11.7013,-7.34476 26.2644,-7.52808 38.4116,-1.19532 14.5357,7.57527 30.22,12.93218 46.7452,13.69121 8.1581,0.22756 16.8525,5.42339 15.9233,14.60902 1.1143,10.15089 -3.0432,25.07333 8.7818,30.38287 10.7558,4.06669 17.857,13.08658 22.8604,23.06768 8.5146,10.65919 18.2262,21.57447 18.4389,36.03012 0.595,10.0456 1.3599,26.52007 -11.2915,29.40405 -6.1241,2.20796 -10.485,-3.7258 -9.4649,-9.39173 0.3675,-7.28134 0.1121,-19.87229 -10.1449,-19.25915 -13.9693,1.70312 -19.6674,17.24836 -18.0272,29.63886 -0.1505,15.11436 18.8076,16.84539 26.5011,26.65361 6.8161,9.39806 7.1747,22.53273 4.5129,33.39249 -4.8491,6.98314 -13.6316,-1.17622 -19.8324,-1.90578 -4.1786,-1.56379 -10.5994,-3.8785 -11.8311,2.4516 -3.9068,7.26107 6.8597,11.06617 6.6962,18.2468 2.6267,11.94147 -0.9357,29.14477 -14.3072,32.71556 -6.97,1.13811 -11.2745,-5.9308 -15.8013,-9.42832 -8.1092,8.5606 -21.3355,11.55505 -32.3771,8.23911 -4.9447,-4.80712 -1.2674,-16.86712 -10.6358,-17.20089 -7.6523,0.42809 -19.993,-0.92104 -20.2898,-11.03224 0.4543,-9.52244 13.2809,-13.25183 14.7127,-21.8053 -7.1042,-3.5328 -20.794,-2.21244 -21.5827,-12.81911 -1.176,-3.93388 1.6933,-11.41266 -1.8113,-13.80707 -5.766,4.30381 -13.1614,3.67179 -19.5427,5.53442 -1.5041,7.0681 -2.313,15.34603 -8.6965,20.3264 -5.6058,6.60733 -18.5023,7.16915 -20.6805,-2.91772 -2.4463,-3.80264 -4.9859,-13.89858 -11.2362,-9.26104 -8.279,5.49163 -20.91693,11.41793 -28.91003,2.19241 -4.40943,-4.5645 -12.49836,-14.9134 -4.08602,-19.48174 3.00198,-2.64369 11.78221,-6.37374 8.54709,-11.32802 -6.38901,-0.98374 -13.49996,-2.5472 -16.88684,-8.98923 -5.01179,-5.8298 -1.84124,-12.98568 -1.58865,-19.46957 -8.2111,0.58192 -15.9691,7.43194 -23.75989,10.53826 -12.83672,8.93465 -31.79345,1.70711 -42.41831,14.49621 -14.25739,14.13098 -18.10693,34.51161 -18.34616,53.81026 0.41571,17.95574 -6.51978,34.5553 -10.50599,51.74614 -4.78332,53.71816 17.13858,105.64815 42.62606,151.68491 25.27819,42.97889 65.52647,74.87616 106.92814,101.46198 17.7838,10.41399 35.5387,21.9645 54.9234,28.89789 36.4326,-30.39421 66.6293,-68.04892 91.9719,-108.06289 72.4833,-115.11963 92.8608,-261.15418 54.8878,-391.76145 C 1194.0873,145.33734 1105.9957,35.813937 990.90402,-25.833387 922.06249,-63.151704 843.98586,-84.027169 765.54673,-83.73385 c -8.74652,-0.172767 -17.49594,-0.194441 -26.24337,-0.07824 z"
       id="path47530"
       transform="scale(0.26458333)" />
  </g>
</svg>
