<?xml version="1.0" encoding="UTF-8" standalone="no"?>
<!-- Created with Inkscape (http://www.inkscape.org/) -->

<svg
   width="793.70081"
   height="1122.5197"
   viewBox="0 0 210 297"
   version="1.1"
   id="svg5"
   inkscape:version="1.1 (c68e22c387, 2021-05-23)"
   sodipodi:docname="title.svg"
   xmlns:inkscape="http://www.inkscape.org/namespaces/inkscape"
   xmlns:sodipodi="http://sodipodi.sourceforge.net/DTD/sodipodi-0.dtd"
   xmlns="http://www.w3.org/2000/svg"
   xmlns:svg="http://www.w3.org/2000/svg">
  <sodipodi:namedview
     id="namedview7"
     pagecolor="#505050"
     bordercolor="#eeeeee"
     borderopacity="1"
     inkscape:pageshadow="0"
     inkscape:pageopacity="0"
     inkscape:pagecheckerboard="0"
     inkscape:document-units="mm"
     showgrid="false"
     showborder="false"
     units="px"
     inkscape:zoom="3.7946873"
     inkscape:cx="159.03814"
     inkscape:cy="52.837028"
     inkscape:window-width="1920"
     inkscape:window-height="1013"
     inkscape:window-x="-9"
     inkscape:window-y="-9"
     inkscape:window-maximized="1"
     inkscape:current-layer="layer1" />
  <defs
     id="defs2">
    <rect
       x="18.973895"
       y="8.959895"
       width="129.12789"
       height="116.21511"
       id="rect16107" />
    <rect
       x="38.211317"
       y="29.778474"
       width="190.00247"
       height="48.75237"
       id="rect1541" />
    <rect
       x="38.211317"
       y="29.778474"
       width="178.14379"
       height="108.30932"
       id="rect5343" />
    <rect
       x="18.973895"
       y="8.959895"
       width="129.12789"
       height="116.21511"
       id="rect26613" />
    <rect
       x="18.973895"
       y="8.959895"
       width="129.12789"
       height="116.21511"
       id="rect26619" />
  </defs>
  <g
     inkscape:label="Layer 1"
     inkscape:groupmode="layer"
     id="layer1">
    <rect
       style="fill:none;stroke:none;stroke-width:4.99999;stroke-linejoin:round;stroke-dashoffset:9.52442;paint-order:markers stroke fill"
       id="rect53"
       width="79.375"
       height="39.6875"
       x="0"
       y="-1.4210855e-14"
       inkscape:export-filename="C:\Users\travi\OneDrive\JET\Games\Tsunami Game\Tsunami\title.png"
       inkscape:export-xdpi="192"
       inkscape:export-ydpi="192" />
    <text
       xml:space="preserve"
       transform="matrix(0.40343684,-0.10810057,0.10810057,0.40343684,-18.677866,15.705896)"
       id="text1539"
       style="font-style:normal;font-weight:normal;font-size:40px;line-height:1.25;font-family:sans-serif;letter-spacing:0px;word-spacing:0px;white-space:pre;shape-inside:url(#rect1541);fill:#000000;fill-opacity:1;stroke:none"><tspan
         x="38.210938"
         y="66.771484"
         id="tspan27758"><tspan
           style="font-family:'a Alloy Ink';-inkscape-font-specification:'a Alloy Ink, Normal';fill:#ffffff"
           id="tspan27756">Wipeout!</tspan></tspan></text>
    <text
       xml:space="preserve"
       transform="matrix(0.28631018,-0.07671658,0.07671658,0.28631018,33.120578,21.172807)"
       id="text5341"
       style="font-style:normal;font-weight:normal;font-size:40px;line-height:1.25;font-family:sans-serif;letter-spacing:0px;word-spacing:0px;white-space:pre;shape-inside:url(#rect5343);fill:#000000;fill-opacity:1;stroke:none"><tspan
         x="38.210938"
         y="65.169922"
         id="tspan27762"><tspan
           style="font-family:Arkipelago;-inkscape-font-specification:'Arkipelago, Normal';fill:#ffffff"
           id="tspan27760">English</tspan></tspan></text>
    <g
       id="g27733">
      <g
         aria-label="
 🌊"
         transform="matrix(0.44376112,-0.11890543,0.11890543,0.44376112,-24.397966,-16.985428)"
         id="text16105"
         style="font-size:40px;line-height:1.25;letter-spacing:0px;word-spacing:0px;white-space:pre;shape-inside:url(#rect16107)">
        <path
           d="m 90.855877,102.16053 -35.924236,-0.15965 c -1.679671,-0.007 -3.294271,-0.22135 -4.84375,-0.66406 -1.549479,-0.42969 -3.001302,-1.04167 -4.355469,-1.83594 -1.354167,-0.78125 -2.584635,-1.731771 -3.691406,-2.851562 -1.106771,-1.106771 -2.057292,-2.33073 -2.851563,-3.671875 -0.794271,-1.354167 -1.41276,-2.80599 -1.855469,-4.355469 -0.429687,-1.549479 -0.644531,-3.164063 -0.644531,-4.84375 0,-2.330729 0.299479,-4.576823 0.898438,-6.738281 0.611979,-2.161459 1.464843,-4.173178 2.558593,-6.035157 1.106771,-1.875 2.428386,-3.580729 3.964844,-5.117187 1.549479,-1.536459 3.261719,-2.851563 5.136719,-3.945313 1.875,-1.106771 3.880208,-1.959635 6.015625,-2.558593 2.148437,-0.598959 4.38151,-0.898438 6.699219,-0.898438 2.057291,0 4.016927,0.371094 5.878906,1.113281 1.861979,0.729167 3.567708,1.764323 5.117187,3.105469 l 2.34375,0 c 0.416667,0 0.813802,0.07162 1.191407,0.214844 0.377604,0.130208 0.716146,0.31901 1.015625,0.566406 0.3125,0.247396 0.572917,0.546875 0.78125,0.898438 0.208333,0.338541 0.351562,0.709635 0.429687,1.113281 h 0.07813 v 0.9375 c 0.01302,0.299479 0.01953,0.605469 0.01953,0.917969 0,0.273437 -0.0065,0.546875 -0.01953,0.820312 -0.01302,0.260417 -0.03255,0.527344 -0.05859,0.800781 0.455729,0.338542 0.813802,0.755209 1.074219,1.25 0.260417,0.494792 0.390625,1.028646 0.390625,1.601563 0,0.494791 -0.09115,0.957031 -0.273437,1.386719 -0.182292,0.416667 -0.436198,0.78776 -0.761719,1.113281 -0.3125,0.3125 -0.683594,0.559896 -1.113281,0.742187 -0.429688,0.182292 -0.885417,0.273438 -1.367188,0.273438 -0.15625,0 -0.3125,-0.01302 -0.46875,-0.03906 -0.15625,-0.02604 -0.30599,-0.05859 -0.449219,-0.09766 -0.143229,0.429687 -0.345051,0.826823 -0.605468,1.191406 -0.260417,0.351563 -0.566406,0.657552 -0.917969,0.917969 -0.351563,0.260417 -0.735677,0.46224 -1.152344,0.605469 -0.416667,0.143229 -0.852865,0.214844 -1.308594,0.214844 -0.234375,0 -0.455729,-0.01953 -0.664062,-0.05859 -0.338542,0.455729 -0.761719,0.813802 -1.269531,1.074219 -0.494792,0.260417 -1.028646,0.390625 -1.601563,0.390625 -0.325521,0.442708 -0.735677,0.78776 -1.230469,1.035156 -0.494791,0.247396 -1.015625,0.371094 -1.5625,0.371094 -0.611979,0 -1.178385,-0.143229 -1.699218,-0.429688 -0.507813,-0.299479 -0.924479,-0.703125 -1.25,-1.210937 -0.182292,0.234375 -0.319011,0.494791 -0.410157,0.78125 -0.09114,0.273437 -0.136718,0.559896 -0.136718,0.859375 0,0.390625 0.07161,0.755208 0.214843,1.09375 0.143229,0.338541 0.338542,0.63802 0.585938,0.898437 0.260417,0.247396 0.559896,0.449219 0.898437,0.605469 0.338542,0.143229 0.703125,0.214844 1.09375,0.214844 l 17.817144,1.21777 c -4.256042,12.752003 3.68433,13.295451 8.282865,17.184064 z M 54.931641,99.18838 c -1.158855,0 -2.278646,-0.14974 -3.359375,-0.449219 -1.080729,-0.299479 -2.089844,-0.729166 -3.027344,-1.289062 -0.924479,-0.546875 -1.770834,-1.204427 -2.539063,-1.972656 -0.768229,-0.768229 -1.432291,-1.614584 -1.992187,-2.539063 -0.546875,-0.9375 -0.970052,-1.946615 -1.269531,-3.027344 -0.299479,-1.080729 -0.449219,-2.20052 -0.449219,-3.359375 0,-1.354167 0.260417,-2.623698 0.78125,-3.808593 0.520833,-1.197917 1.223958,-2.239583 2.109375,-3.125 0.898437,-0.898438 1.940104,-1.601563 3.125,-2.109375 1.197917,-0.520833 2.473958,-0.78125 3.828125,-0.78125 h 2.792969 c 0.351562,0 0.624999,0.07813 0.820312,0.234375 0.208333,0.143229 0.403646,0.305989 0.585938,0.488281 0.182291,0.169271 0.371093,0.325521 0.566406,0.46875 0.208333,0.143229 0.488281,0.214844 0.839844,0.214844 0.390625,0 0.722656,-0.136719 0.996093,-0.410157 0.273438,-0.273437 0.410157,-0.605468 0.410157,-0.996093 0,-0.338542 -0.07813,-0.61198 -0.234375,-0.820313 -0.143229,-0.208333 -0.30599,-0.397135 -0.488282,-0.566406 -0.169271,-0.182292 -0.325521,-0.377605 -0.46875,-0.585938 -0.143229,-0.208333 -0.214843,-0.481771 -0.214843,-0.820312 0,-0.390625 0.136719,-0.722657 0.410156,-0.996094 0.273437,-0.273437 0.605469,-0.410156 0.996094,-0.410156 0.455729,0 0.846354,0.07162 1.171875,0.214844 0.338541,0.130208 0.63802,0.299479 0.898437,0.507812 0.260417,0.208333 0.501302,0.436198 0.722656,0.683594 0.234375,0.247396 0.481771,0.475261 0.742188,0.683594 0.260417,0.208333 0.553385,0.384114 0.878906,0.527343 0.338542,0.130209 0.735677,0.195313 1.191406,0.195313 0.390625,0 0.755209,-0.07161 1.09375,-0.214844 0.338542,-0.15625 0.631511,-0.358073 0.878907,-0.605469 0.260417,-0.260417 0.462239,-0.559896 0.605468,-0.898437 0.15625,-0.338542 0.234375,-0.703125 0.234375,-1.09375 0,-0.351563 -0.07813,-0.631511 -0.234375,-0.839844 -0.143229,-0.208333 -0.305989,-0.397135 -0.488281,-0.566406 -0.169271,-0.182292 -0.325521,-0.377605 -0.46875,-0.585938 -0.143229,-0.208333 -0.214844,-0.481771 -0.214844,-0.820312 0,-0.377604 0.136719,-0.703125 0.410157,-0.976563 0.286458,-0.286458 0.618489,-0.429687 0.996093,-0.429687 0.455729,0 0.846354,0.07162 1.171875,0.214844 0.325521,0.130208 0.61849,0.299479 0.878907,0.507812 0.273437,0.208333 0.520833,0.436198 0.742187,0.683594 0.234375,0.247396 0.481771,0.475261 0.742188,0.683594 0.273437,0.208333 0.572916,0.384114 0.898437,0.527343 0.338542,0.130209 0.735677,0.195313 1.191406,0.195313 0.390625,0 0.755209,-0.07161 1.09375,-0.214844 0.338542,-0.15625 0.631511,-0.358073 0.878907,-0.605469 0.260417,-0.260417 0.462239,-0.559896 0.605468,-0.898437 0.143229,-0.338542 0.214844,-0.703125 0.214844,-1.09375 -0.611979,0 -1.132813,-0.123698 -1.5625,-0.371094 -0.429687,-0.260417 -0.839844,-0.605469 -1.230469,-1.035156 -0.78125,-0.846354 -1.582031,-1.614583 -2.402343,-2.304688 -0.820313,-0.690104 -1.686198,-1.276041 -2.597657,-1.757812 -0.898437,-0.494792 -1.861979,-0.872396 -2.890625,-1.132813 -1.028645,-0.273437 -2.141926,-0.410156 -3.339843,-0.410156 -2.070313,0 -4.0625,0.273438 -5.976563,0.820313 -1.914063,0.533854 -3.704427,1.289062 -5.371094,2.265625 -1.666667,0.963541 -3.183594,2.128906 -4.550781,3.496093 -1.354167,1.367188 -2.519531,2.884115 -3.496094,4.550782 -0.976562,1.666667 -1.73177,3.457031 -2.265625,5.371093 -0.533854,1.914063 -0.800781,3.90625 -0.800781,5.976563 0,1.40625 0.182292,2.766927 0.546875,4.082031 0.364583,1.302083 0.872396,2.526042 1.523438,3.671875 0.664062,1.145833 1.458333,2.1875 2.382812,3.125 0.9375,0.9375 1.972656,1.738281 3.105469,2.402344 1.132813,0.677083 2.350261,1.197917 3.652344,1.5625 1.315104,0.377604 2.675781,0.566406 4.082031,0.566406 z m 22.460937,-5.605469 c -0.703125,0.859375 -1.536458,1.536459 -2.5,2.03125 -0.950521,0.507813 -1.985677,0.761719 -3.105469,0.761719 -0.833333,0 -1.647135,-0.104167 -2.441406,-0.3125 -0.78125,-0.195313 -1.529948,-0.475261 -2.246094,-0.839844 -0.703125,-0.364583 -1.373697,-0.807292 -2.011718,-1.328125 -0.625,-0.520833 -1.197917,-1.10026 -1.71875,-1.738281 -1.054688,1.302083 -2.304688,2.330729 -3.75,3.085938 -1.432292,0.755208 -2.994792,1.132812 -4.6875,1.132812 -1.354167,0 -2.630208,-0.253906 -3.828125,-0.761719 -1.197917,-0.507812 -2.239583,-1.204426 -3.125,-2.089843 -0.885417,-0.885417 -1.588542,-1.920573 -2.109375,-3.105469 -0.507813,-1.197917 -0.761719,-2.480469 -0.761719,-3.847656 0,-1.5625 0.345052,-3.020833 1.035156,-4.375 0.690104,-1.367188 1.647135,-2.526042 2.871094,-3.476563 -0.794271,0.3125 -1.516927,0.735677 -2.167969,1.269531 -0.651041,0.520833 -1.210937,1.126302 -1.679687,1.816407 -0.46875,0.677083 -0.833333,1.419271 -1.09375,2.226562 -0.247396,0.794271 -0.371094,1.621094 -0.371094,2.480469 0,1.471354 0.253906,2.858073 0.761719,4.160156 0.520833,1.289063 1.236979,2.434896 2.148437,3.4375 0.911459,0.989583 1.985677,1.796875 3.222656,2.421875 1.25,0.638021 2.604167,1.035156 4.0625,1.191406 0.338542,0.03906 0.683594,0.0651 1.035157,0.07813 0.351562,0.01302 0.696614,0.01953 1.035156,0.01953 0.299479,0 0.592448,-0.0065 0.878906,-0.01953 l 0.878906,0 c 0.364583,0.416667 0.787761,0.748698 1.269532,0.996094 0.494791,0.260417 1.015625,0.390625 1.5625,0.390625 0.546875,0 1.061197,-0.130208 1.542968,-0.390625 0.494792,-0.260417 0.917969,-0.598958 1.269532,-1.015625 0.338541,0.416667 0.748697,0.755208 1.230468,1.015625 0.494792,0.260417 1.015625,0.390625 1.5625,0.390625 0.546875,0 1.061198,-0.130208 1.542969,-0.390625 0.494792,-0.260417 0.917969,-0.598958 1.269531,-1.015625 0.351563,0.416667 0.768229,0.755208 1.25,1.015625 0.494792,0.260417 1.015625,0.390625 1.5625,0.390625 0.546875,0 1.061198,-0.130208 1.542969,-0.390625 0.494792,-0.260417 0.911459,-0.598958 1.25,-1.015625 0.351563,0.416667 0.768229,0.755208 1.25,1.015625 0.481771,0.260417 1.002604,0.390625 1.5625,0.390625 z M 64.755859,86.571193 c -0.768229,0 -1.490885,-0.14974 -2.167968,-0.449219 -0.677083,-0.299479 -1.269531,-0.703125 -1.777344,-1.210938 -0.507813,-0.507812 -0.911459,-1.10026 -1.210938,-1.777343 -0.299479,-0.690105 -0.449218,-1.419271 -0.449218,-2.1875 0,-0.703125 0.130208,-1.386719 0.390625,-2.050782 -0.533855,0.429688 -1.132813,0.644532 -1.796875,0.644532 -0.416667,0 -0.787761,-0.07161 -1.113282,-0.214844 -0.3125,-0.143229 -0.585937,-0.299479 -0.820312,-0.46875 -0.234375,-0.182292 -0.423177,-0.345052 -0.566406,-0.488281 -0.143229,-0.15625 -0.247396,-0.234375 -0.3125,-0.234375 h -1.953125 c -0.507813,0.390625 -0.989584,0.774739 -1.445313,1.152343 -0.442708,0.364583 -0.826823,0.761719 -1.152344,1.191407 -0.325521,0.429687 -0.585937,0.911458 -0.78125,1.445312 -0.182291,0.520833 -0.273437,1.132813 -0.273437,1.835938 0,0.768229 0.143229,1.497395 0.429687,2.1875 0.299479,0.677083 0.703125,1.269531 1.210938,1.777343 0.507813,0.507813 1.100261,0.911459 1.777344,1.210938 0.690104,0.286458 1.419271,0.429687 2.1875,0.429687 0.325521,0 0.618489,-0.07161 0.878906,-0.214843 0.273437,-0.143229 0.520833,-0.319011 0.742187,-0.527344 0.234375,-0.221354 0.442709,-0.462239 0.625,-0.722656 0.195313,-0.260417 0.384115,-0.501302 0.566407,-0.722657 0.182291,0.234375 0.371093,0.481771 0.566406,0.742188 0.195313,0.247396 0.403646,0.481771 0.625,0.703125 0.221354,0.208333 0.462239,0.384115 0.722656,0.527344 0.260417,0.143229 0.559896,0.214843 0.898438,0.214843 0.559895,0 1.074218,-0.07161 1.542968,-0.214843 0.46875,-0.15625 0.904948,-0.364583 1.308594,-0.625 0.416667,-0.260417 0.800781,-0.566406 1.152344,-0.917969 0.351563,-0.351563 0.696615,-0.735677 1.035156,-1.152344 -0.273437,0.07813 -0.553385,0.117188 -0.839844,0.117188 z m 2.8125,-1.40625 c -0.15625,0.182291 -0.325521,0.358072 -0.507812,0.527343 -0.182292,0.15625 -0.384115,0.292969 -0.605469,0.410157 l 0.800781,0.976562 c 0.638021,0.768229 1.334636,1.464844 2.089844,2.089844 0.755209,0.625 1.55599,1.165365 2.402344,1.621094 0.859375,0.442708 1.757812,0.78776 2.695312,1.035156 0.950521,0.234375 1.933594,0.351562 2.949219,0.351562 v -5.605468 h -0.585937 c -0.390625,0 -0.748698,-0.01302 -1.074219,-0.03906 -0.325521,-0.02604 -0.63151,-0.08463 -0.917969,-0.175781 -0.286458,-0.104167 -0.566406,-0.247396 -0.839844,-0.429688 -0.260417,-0.195312 -0.520833,-0.449218 -0.78125,-0.761718 -0.351562,0.416667 -0.768229,0.755208 -1.25,1.015625 -0.481771,0.260417 -1.002604,0.390625 -1.5625,0.390625 -0.559895,0 -1.080729,-0.130208 -1.5625,-0.390625 -0.481771,-0.260417 -0.898437,-0.598958 -1.25,-1.015625 z m 4.21875,-9.824219 c 0.377605,0 0.703126,-0.136719 0.976563,-0.410156 0.286458,-0.286459 0.429687,-0.61849 0.429687,-0.996094 0,-0.377604 -0.143229,-0.703125 -0.429687,-0.976563 -0.273437,-0.286458 -0.598958,-0.429687 -0.976563,-0.429687 l -1.40625,0 v 1.40625 c 0,0.377604 0.136719,0.709635 0.410157,0.996094 0.286458,0.273437 0.618489,0.410156 0.996093,0.410156 z m -11.289062,1.953125 c 0.234375,-0.260417 0.488281,-0.501302 0.761719,-0.722656 0.286458,-0.234375 0.585937,-0.436198 0.898437,-0.605469 -0.260417,-0.15625 -0.501302,-0.345052 -0.722656,-0.566406 -0.221354,-0.234375 -0.442708,-0.45573 -0.664063,-0.664063 -0.221354,-0.221354 -0.462239,-0.410156 -0.722656,-0.566406 -0.260417,-0.15625 -0.559896,-0.234375 -0.898437,-0.234375 0,0.06511 0.07161,0.175784 0.214843,0.332031 0.15625,0.143229 0.319011,0.332031 0.488282,0.566406 0.182291,0.234375 0.345052,0.507813 0.488281,0.820313 0.143229,0.3125 0.214844,0.670573 0.214844,1.074219 0,0.182291 -0.01953,0.371093 -0.05859,0.566406 z m 4.960937,0.839844 c 0.195313,0 0.358073,-0.0651 0.488282,-0.195313 0.143229,-0.143229 0.214843,-0.3125 0.214843,-0.507812 0,-0.195313 -0.07161,-0.358073 -0.214843,-0.488282 -0.130209,-0.143229 -0.292969,-0.214843 -0.488282,-0.214843 h -0.703125 l 0,0.703125 c 0,0.195312 0.0651,0.364583 0.195313,0.507812 0.143229,0.130209 0.3125,0.195313 0.507812,0.195313 z m 9.121094,-11.933594 c 0,0.195313 0.07161,0.364583 0.214844,0.507812 0.15625,0.130209 0.325521,0.195313 0.507812,0.195313 0.195313,0 0.358073,-0.0651 0.488282,-0.195313 0.130208,-0.143229 0.195312,-0.312499 0.195312,-0.507812 0,-0.182292 -0.07161,-0.345052 -0.214844,-0.488281 -0.130208,-0.143229 -0.286458,-0.214844 -0.46875,-0.214844 h -0.722656 z m 2.109375,6.328125 c 0.195313,0 0.358073,-0.0651 0.488281,-0.195313 0.143229,-0.143229 0.214844,-0.312499 0.214844,-0.507812 0,-0.195313 -0.07161,-0.358073 -0.214844,-0.488281 -0.130208,-0.143229 -0.292968,-0.214844 -0.488281,-0.214844 l -0.703125,0 v 0.703125 c 0,0.182291 0.07161,0.345052 0.214844,0.488281 0.143229,0.143229 0.30599,0.214844 0.488281,0.214844 z m -8.417969,4.199219 c 0.195313,0 0.358073,-0.0651 0.488282,-0.195313 0.143229,-0.143229 0.214843,-0.3125 0.214843,-0.507812 0,-0.182292 -0.07161,-0.338542 -0.214843,-0.46875 -0.143229,-0.143229 -0.30599,-0.214844 -0.488282,-0.214844 h -0.703125 l 0,0.683594 c 0,0.195312 0.0651,0.364583 0.195313,0.507812 0.143229,0.130209 0.3125,0.195313 0.507812,0.195313 z"
           style="fill:#ffffff"
           id="path26719"
           sodipodi:nodetypes="cscccccscccccsccsccccccsccsscssssccssscccsscccssccscccscscsscscsscccsssccsssscscscscscsccsssscccccscsscccsccscccssscccccscccscccccssscscccccsccccsscccscccscccsccsccssscscscccsccscscscsccccccssccscsscccsccccsscccsssssssscscscssccccscccssssssscscscsscscscscsssscscsssssscscscs" />
      </g>
      <g
         aria-label="
 🌊"
         transform="matrix(0.25799918,-0.06913067,0.06913067,0.25799918,7.1873123,-5.0582435)"
         id="text26611"
         style="font-size:40px;line-height:1.25;letter-spacing:0px;word-spacing:0px;white-space:pre;shape-inside:url(#rect26613)">
        <path
           d="m 90.167354,102.64338 -35.235713,-0.6425 c -1.679409,-0.0306 -3.294271,-0.22135 -4.84375,-0.66406 -1.549479,-0.42969 -3.001302,-1.04167 -4.355469,-1.83594 -1.354167,-0.78125 -2.584635,-1.731771 -3.691406,-2.851562 -1.106771,-1.106771 -2.057292,-2.33073 -2.851563,-3.671875 -0.794271,-1.354167 -1.41276,-2.80599 -1.855469,-4.355469 -0.429687,-1.549479 -0.644531,-3.164063 -0.644531,-4.84375 0,-2.330729 0.299479,-4.576823 0.898438,-6.738281 0.611979,-2.161459 1.464843,-4.173178 2.558593,-6.035157 1.106771,-1.875 2.428386,-3.580729 3.964844,-5.117187 1.549479,-1.536459 3.261719,-2.851563 5.136719,-3.945313 1.875,-1.106771 3.880208,-1.959635 6.015625,-2.558593 2.148437,-0.598959 4.38151,-0.898438 6.699219,-0.898438 2.057291,0 4.016927,0.371094 5.878906,1.113281 1.861979,0.729167 3.567708,1.764323 5.117187,3.105469 h 2.34375 c 0.416667,0 0.813802,0.07162 1.191407,0.214844 0.377604,0.130208 0.716146,0.31901 1.015625,0.566406 0.3125,0.247396 0.572917,0.546875 0.78125,0.898438 0.208333,0.338541 0.351562,0.709635 0.429687,1.113281 h 0.07813 v 0.9375 c 0.01302,0.299479 0.01953,0.605469 0.01953,0.917969 0,0.273437 -0.0065,0.546875 -0.01953,0.820312 -0.01302,0.260417 -0.03255,0.527344 -0.05859,0.800781 0.455729,0.338542 0.813802,0.755209 1.074219,1.25 0.260417,0.494792 0.390625,1.028646 0.390625,1.601563 0,0.494791 -0.09115,0.957031 -0.273437,1.386719 -0.182292,0.416667 -0.436198,0.78776 -0.761719,1.113281 -0.3125,0.3125 -0.683594,0.559896 -1.113281,0.742187 -0.429688,0.182292 -0.885417,0.273438 -1.367188,0.273438 -0.15625,0 -0.3125,-0.01302 -0.46875,-0.03906 -0.15625,-0.02604 -0.30599,-0.05859 -0.449219,-0.09766 -0.143229,0.429687 -0.345051,0.826823 -0.605468,1.191406 -0.260417,0.351563 -0.566406,0.657552 -0.917969,0.917969 -0.351563,0.260417 -0.735677,0.46224 -1.152344,0.605469 -0.416667,0.143229 -0.852865,0.214844 -1.308594,0.214844 -0.234375,0 -0.455729,-0.01953 -0.664062,-0.05859 -0.338542,0.455729 -0.761719,0.813802 -1.269531,1.074219 -0.494792,0.260417 -1.028646,0.390625 -1.601563,0.390625 -0.325521,0.442708 -0.735677,0.78776 -1.230469,1.035156 -0.494791,0.247396 -1.015625,0.371094 -1.5625,0.371094 -0.611979,0 -1.178385,-0.143229 -1.699218,-0.429688 -0.507813,-0.299479 -0.924479,-0.703125 -1.25,-1.210937 -0.182292,0.234375 -0.319011,0.494791 -0.410157,0.78125 -0.09114,0.273437 -0.136718,0.559896 -0.136718,0.859375 0,0.390625 0.07161,0.755208 0.214843,1.09375 0.143229,0.338541 0.338542,0.63802 0.585938,0.898437 0.260417,0.247396 0.559896,0.449219 0.898437,0.605469 0.338542,0.143229 0.704249,0.185237 1.09375,0.214844 l 15.935412,1.211281 c -1.335122,8.862606 -0.13026,14.844997 9.476074,17.673403 z m -35.235713,-3.455 c -1.158855,0 -2.278646,-0.14974 -3.359375,-0.449219 -1.080729,-0.299479 -2.089844,-0.729166 -3.027344,-1.289062 -0.924479,-0.546875 -1.770834,-1.204427 -2.539063,-1.972656 -0.768229,-0.768229 -1.432291,-1.614584 -1.992187,-2.539063 -0.546875,-0.9375 -0.970052,-1.946615 -1.269531,-3.027344 -0.299479,-1.080729 -0.449219,-2.20052 -0.449219,-3.359375 0,-1.354167 0.260417,-2.623698 0.78125,-3.808593 0.520833,-1.197917 1.223958,-2.239583 2.109375,-3.125 0.898437,-0.898438 1.940104,-1.601563 3.125,-2.109375 1.197917,-0.520833 2.473958,-0.78125 3.828125,-0.78125 h 2.792969 c 0.351562,0 0.624999,0.07813 0.820312,0.234375 0.208333,0.143229 0.403646,0.305989 0.585938,0.488281 0.182291,0.169271 0.371093,0.325521 0.566406,0.46875 0.208333,0.143229 0.488281,0.214844 0.839844,0.214844 0.390625,0 0.722656,-0.136719 0.996093,-0.410157 0.273438,-0.273437 0.410157,-0.605468 0.410157,-0.996093 0,-0.338542 -0.07813,-0.61198 -0.234375,-0.820313 -0.143229,-0.208333 -0.30599,-0.397135 -0.488282,-0.566406 -0.169271,-0.182292 -0.325521,-0.377605 -0.46875,-0.585938 -0.143229,-0.208333 -0.214843,-0.481771 -0.214843,-0.820312 0,-0.390625 0.136719,-0.722657 0.410156,-0.996094 0.273437,-0.273437 0.605469,-0.410156 0.996094,-0.410156 0.455729,0 0.846354,0.07162 1.171875,0.214844 0.338541,0.130208 0.63802,0.299479 0.898437,0.507812 0.260417,0.208333 0.501302,0.436198 0.722656,0.683594 0.234375,0.247396 0.481771,0.475261 0.742188,0.683594 0.260417,0.208333 0.553385,0.384114 0.878906,0.527343 0.338542,0.130209 0.735677,0.195313 1.191406,0.195313 0.390625,0 0.755209,-0.07161 1.09375,-0.214844 0.338542,-0.15625 0.631511,-0.358073 0.878907,-0.605469 0.260417,-0.260417 0.462239,-0.559896 0.605468,-0.898437 0.15625,-0.338542 0.234375,-0.703125 0.234375,-1.09375 0,-0.351563 -0.07813,-0.631511 -0.234375,-0.839844 -0.143229,-0.208333 -0.305989,-0.397135 -0.488281,-0.566406 -0.169271,-0.182292 -0.325521,-0.377605 -0.46875,-0.585938 -0.143229,-0.208333 -0.214844,-0.481771 -0.214844,-0.820312 0,-0.377604 0.136719,-0.703125 0.410157,-0.976563 0.286458,-0.286458 0.618489,-0.429687 0.996093,-0.429687 0.455729,0 0.846354,0.07162 1.171875,0.214844 0.325521,0.130208 0.61849,0.299479 0.878907,0.507812 0.273437,0.208333 0.520833,0.436198 0.742187,0.683594 0.234375,0.247396 0.481771,0.475261 0.742188,0.683594 0.273437,0.208333 0.572916,0.384114 0.898437,0.527343 0.338542,0.130209 0.735677,0.195313 1.191406,0.195313 0.390625,0 0.755209,-0.07161 1.09375,-0.214844 0.338542,-0.15625 0.631511,-0.358073 0.878907,-0.605469 0.260417,-0.260417 0.462239,-0.559896 0.605468,-0.898437 0.143229,-0.338542 0.214844,-0.703125 0.214844,-1.09375 -0.611979,0 -1.132813,-0.123698 -1.5625,-0.371094 -0.429687,-0.260417 -0.839844,-0.605469 -1.230469,-1.035156 -0.78125,-0.846354 -1.582031,-1.614583 -2.402343,-2.304688 -0.820313,-0.690104 -1.686198,-1.276041 -2.597657,-1.757812 -0.898437,-0.494792 -1.861979,-0.872396 -2.890625,-1.132813 -1.028645,-0.273437 -2.141926,-0.410156 -3.339843,-0.410156 -2.070313,0 -4.0625,0.273438 -5.976563,0.820313 -1.914063,0.533854 -3.704427,1.289062 -5.371094,2.265625 -1.666667,0.963541 -3.183594,2.128906 -4.550781,3.496093 -1.354167,1.367188 -2.519531,2.884115 -3.496094,4.550782 -0.976562,1.666667 -1.73177,3.457031 -2.265625,5.371093 -0.533854,1.914063 -0.800781,3.90625 -0.800781,5.976563 0,1.40625 0.182292,2.766927 0.546875,4.082031 0.364583,1.302083 0.872396,2.526042 1.523438,3.671875 0.664062,1.145833 1.458333,2.1875 2.382812,3.125 0.9375,0.9375 1.972656,1.738281 3.105469,2.402344 1.132813,0.677083 2.350261,1.197917 3.652344,1.5625 1.315104,0.377604 2.675781,0.566406 4.082031,0.566406 z m 22.460937,-5.605469 c -0.703125,0.859375 -1.536458,1.536459 -2.5,2.03125 -0.950521,0.507813 -1.985677,0.761719 -3.105469,0.761719 -0.833333,0 -1.647135,-0.104167 -2.441406,-0.3125 -0.78125,-0.195313 -1.529948,-0.475261 -2.246094,-0.839844 -0.703125,-0.364583 -1.373697,-0.807292 -2.011718,-1.328125 -0.625,-0.520833 -1.197917,-1.10026 -1.71875,-1.738281 -1.054688,1.302083 -2.304688,2.330729 -3.75,3.085938 -1.432292,0.755208 -2.994792,1.132812 -4.6875,1.132812 -1.354167,0 -2.630208,-0.253906 -3.828125,-0.761719 -1.197917,-0.507812 -2.239583,-1.204426 -3.125,-2.089843 -0.885417,-0.885417 -1.588542,-1.920573 -2.109375,-3.105469 -0.507813,-1.197917 -0.761719,-2.480469 -0.761719,-3.847656 0,-1.5625 0.345052,-3.020833 1.035156,-4.375 0.690104,-1.367188 1.647135,-2.526042 2.871094,-3.476563 -0.794271,0.3125 -1.516927,0.735677 -2.167969,1.269531 -0.651041,0.520833 -1.210937,1.126302 -1.679687,1.816407 -0.46875,0.677083 -0.833333,1.419271 -1.09375,2.226562 -0.247396,0.794271 -0.371094,1.621094 -0.371094,2.480469 0,1.471354 0.253906,2.858073 0.761719,4.160156 0.520833,1.289063 1.236979,2.434896 2.148437,3.4375 0.911459,0.989583 1.985677,1.796875 3.222656,2.421875 1.25,0.638021 2.604167,1.035156 4.0625,1.191406 0.338542,0.03906 0.683594,0.0651 1.035157,0.07813 0.351562,0.01302 0.696614,0.01953 1.035156,0.01953 0.299479,0 0.592448,-0.0065 0.878906,-0.01953 h 0.878906 c 0.364583,0.416667 0.787761,0.748698 1.269532,0.996094 0.494791,0.260417 1.015625,0.390625 1.5625,0.390625 0.546875,0 1.061197,-0.130208 1.542968,-0.390625 0.494792,-0.260417 0.917969,-0.598958 1.269532,-1.015625 0.338541,0.416667 0.748697,0.755208 1.230468,1.015625 0.494792,0.260417 1.015625,0.390625 1.5625,0.390625 0.546875,0 1.061198,-0.130208 1.542969,-0.390625 0.494792,-0.260417 0.917969,-0.598958 1.269531,-1.015625 0.351563,0.416667 0.768229,0.755208 1.25,1.015625 0.494792,0.260417 1.015625,0.390625 1.5625,0.390625 0.546875,0 1.061198,-0.130208 1.542969,-0.390625 0.494792,-0.260417 0.911459,-0.598958 1.25,-1.015625 0.351563,0.416667 0.768229,0.755208 1.25,1.015625 0.481771,0.260417 1.002604,0.390625 1.5625,0.390625 z M 64.755859,86.571193 c -0.768229,0 -1.490885,-0.14974 -2.167968,-0.449219 -0.677083,-0.299479 -1.269531,-0.703125 -1.777344,-1.210938 -0.507813,-0.507812 -0.911459,-1.10026 -1.210938,-1.777343 -0.299479,-0.690105 -0.449218,-1.419271 -0.449218,-2.1875 0,-0.703125 0.130208,-1.386719 0.390625,-2.050782 -0.533855,0.429688 -1.132813,0.644532 -1.796875,0.644532 -0.416667,0 -0.787761,-0.07161 -1.113282,-0.214844 -0.3125,-0.143229 -0.585937,-0.299479 -0.820312,-0.46875 -0.234375,-0.182292 -0.423177,-0.345052 -0.566406,-0.488281 -0.143229,-0.15625 -0.247396,-0.234375 -0.3125,-0.234375 l -1.953125,0 c -0.507813,0.390625 -0.989584,0.774739 -1.445313,1.152343 -0.442708,0.364583 -0.826823,0.761719 -1.152344,1.191407 -0.325521,0.429687 -0.585937,0.911458 -0.78125,1.445312 -0.182291,0.520833 -0.273437,1.132813 -0.273437,1.835938 0,0.768229 0.143229,1.497395 0.429687,2.1875 0.299479,0.677083 0.703125,1.269531 1.210938,1.777343 0.507813,0.507813 1.100261,0.911459 1.777344,1.210938 0.690104,0.286458 1.419271,0.429687 2.1875,0.429687 0.325521,0 0.618489,-0.07161 0.878906,-0.214843 0.273437,-0.143229 0.520833,-0.319011 0.742187,-0.527344 0.234375,-0.221354 0.442709,-0.462239 0.625,-0.722656 0.195313,-0.260417 0.384115,-0.501302 0.566407,-0.722657 0.182291,0.234375 0.371093,0.481771 0.566406,0.742188 0.195313,0.247396 0.403646,0.481771 0.625,0.703125 0.221354,0.208333 0.462239,0.384115 0.722656,0.527344 0.260417,0.143229 0.559896,0.214843 0.898438,0.214843 0.559895,0 1.074218,-0.07161 1.542968,-0.214843 0.46875,-0.15625 0.904948,-0.364583 1.308594,-0.625 0.416667,-0.260417 0.800781,-0.566406 1.152344,-0.917969 0.351563,-0.351563 0.696615,-0.735677 1.035156,-1.152344 -0.273437,0.07813 -0.553385,0.117188 -0.839844,0.117188 z m 2.8125,-1.40625 c -0.15625,0.182291 -0.325521,0.358072 -0.507812,0.527343 -0.182292,0.15625 -0.384115,0.292969 -0.605469,0.410157 l 0.800781,0.976562 c 0.638021,0.768229 1.334636,1.464844 2.089844,2.089844 0.755209,0.625 1.55599,1.165365 2.402344,1.621094 0.859375,0.442708 1.757812,0.78776 2.695312,1.035156 0.950521,0.234375 1.933594,0.351562 2.949219,0.351562 v -5.605468 h -0.585937 c -0.390625,0 -0.748698,-0.01302 -1.074219,-0.03906 -0.325521,-0.02604 -0.63151,-0.08463 -0.917969,-0.175781 -0.286458,-0.104167 -0.566406,-0.247396 -0.839844,-0.429688 -0.260417,-0.195312 -0.520833,-0.449218 -0.78125,-0.761718 -0.351562,0.416667 -0.768229,0.755208 -1.25,1.015625 -0.481771,0.260417 -1.002604,0.390625 -1.5625,0.390625 -0.559895,0 -1.080729,-0.130208 -1.5625,-0.390625 -0.481771,-0.260417 -0.898437,-0.598958 -1.25,-1.015625 z m 4.21875,-9.824219 c 0.377605,0 0.703126,-0.136719 0.976563,-0.410156 0.286458,-0.286459 0.429687,-0.61849 0.429687,-0.996094 0,-0.377604 -0.143229,-0.703125 -0.429687,-0.976563 -0.273437,-0.286458 -0.598958,-0.429687 -0.976563,-0.429687 h -1.40625 v 1.40625 c 0,0.377604 0.136719,0.709635 0.410157,0.996094 0.286458,0.273437 0.618489,0.410156 0.996093,0.410156 z m -11.289062,1.953125 c 0.234375,-0.260417 0.488281,-0.501302 0.761719,-0.722656 0.286458,-0.234375 0.585937,-0.436198 0.898437,-0.605469 -0.260417,-0.15625 -0.501302,-0.345052 -0.722656,-0.566406 -0.221354,-0.234375 -0.442708,-0.45573 -0.664063,-0.664063 -0.221354,-0.221354 -0.462239,-0.410156 -0.722656,-0.566406 -0.260417,-0.15625 -0.559896,-0.234375 -0.898437,-0.234375 0,0.06511 0.07161,0.175784 0.214843,0.332031 0.15625,0.143229 0.319011,0.332031 0.488282,0.566406 0.182291,0.234375 0.345052,0.507813 0.488281,0.820313 0.143229,0.3125 0.214844,0.670573 0.214844,1.074219 0,0.182291 -0.01953,0.371093 -0.05859,0.566406 z m 4.960937,0.839844 c 0.195313,0 0.358073,-0.0651 0.488282,-0.195313 0.143229,-0.143229 0.214843,-0.3125 0.214843,-0.507812 0,-0.195313 -0.07161,-0.358073 -0.214843,-0.488282 -0.130209,-0.143229 -0.292969,-0.214843 -0.488282,-0.214843 l -0.703125,0 0,0.703125 c 0,0.195312 0.0651,0.364583 0.195313,0.507812 0.143229,0.130209 0.3125,0.195313 0.507812,0.195313 z m 9.121094,-11.933594 c 0,0.195313 0.07161,0.364583 0.214844,0.507812 0.15625,0.130209 0.325521,0.195313 0.507812,0.195313 0.195313,0 0.358073,-0.0651 0.488282,-0.195313 0.130208,-0.143229 0.195312,-0.312499 0.195312,-0.507812 0,-0.182292 -0.07161,-0.345052 -0.214844,-0.488281 -0.130208,-0.143229 -0.286458,-0.214844 -0.46875,-0.214844 l -0.722656,0 z m 2.109375,6.328125 c 0.195313,0 0.358073,-0.0651 0.488281,-0.195313 0.143229,-0.143229 0.214844,-0.312499 0.214844,-0.507812 0,-0.195313 -0.07161,-0.358073 -0.214844,-0.488281 -0.130208,-0.143229 -0.292968,-0.214844 -0.488281,-0.214844 h -0.703125 l 0,0.703125 c 0,0.182291 0.07161,0.345052 0.214844,0.488281 0.143229,0.143229 0.30599,0.214844 0.488281,0.214844 z m -8.417969,4.199219 c 0.195313,0 0.358073,-0.0651 0.488282,-0.195313 0.143229,-0.143229 0.214843,-0.3125 0.214843,-0.507812 0,-0.182292 -0.07161,-0.338542 -0.214843,-0.46875 -0.143229,-0.143229 -0.30599,-0.214844 -0.488282,-0.214844 l -0.703125,0 v 0.683594 c 0,0.195312 0.0651,0.364583 0.195313,0.507812 0.143229,0.130209 0.3125,0.195313 0.507812,0.195313 z"
           style="fill:#ffffff"
           id="path27530"
           sodipodi:nodetypes="cscccccscccccsccsccccccsccsscssssccssscccsscccssccscccscscsscscsscccsssccsssscscscscscsccsssscccccscsscccsccscccssscccccscccscccccssscscccccsccccsscccscccscccsccsccssscscscccsccscscscsccccccssccscsscccsccccsscccsssssssscscscssccccscccssssssscscscsscscscscsssscscsssssscscscs" />
      </g>
      <text
         xml:space="preserve"
         transform="matrix(0.17965061,-0.04813723,0.04813723,0.17965061,23.073155,-0.59098225)"
         id="text26617"
         style="font-style:normal;font-weight:normal;font-size:40px;line-height:1.25;font-family:sans-serif;letter-spacing:0px;word-spacing:0px;white-space:pre;shape-inside:url(#rect26619);fill:#000000;fill-opacity:1;stroke:none"><tspan
           x="18.974609"
           y="44.349609"
           id="tspan27766"><tspan
             style="fill:#ffffff"
             id="tspan27764">
</tspan></tspan><tspan
           x="18.974609"
           y="94.989161"
           id="tspan27772"><tspan
             style="fill:#ffffff"
             id="tspan27768"> </tspan><tspan
             style="fill:#ffffff"
             id="tspan27770">🌊</tspan></tspan></text>
    </g>
  </g>
</svg>
